<?xml version="1.0" encoding="UTF-8" standalone="no"?>
<svg
   xmlns:dc="http://purl.org/dc/elements/1.1/"
   xmlns:cc="http://creativecommons.org/ns#"
   xmlns:rdf="http://www.w3.org/1999/02/22-rdf-syntax-ns#"
   xmlns:svg="http://www.w3.org/2000/svg"
   xmlns="http://www.w3.org/2000/svg"
   xmlns:xlink="http://www.w3.org/1999/xlink"
   xmlns:sodipodi="http://sodipodi.sourceforge.net/DTD/sodipodi-0.dtd"
   xmlns:inkscape="http://www.inkscape.org/namespaces/inkscape"
   viewBox="0 0 90.628319 90.628319"
   xml:space="preserve"
   version="1.1"
   id="svg2"
   sodipodi:docname="cheese.svg"
   width="90.628319"
   height="90.628319"
   inkscape:version="0.92.2 2405546, 2018-03-11"><sodipodi:namedview
     pagecolor="#ffffff"
     bordercolor="#666666"
     borderopacity="1"
     objecttolerance="10"
     gridtolerance="10"
     guidetolerance="10"
     inkscape:pageopacity="0"
     inkscape:pageshadow="2"
     inkscape:window-width="1366"
     inkscape:window-height="712"
     id="namedview32"
     showgrid="false"
     fit-margin-top="0"
     fit-margin-left="0"
     fit-margin-right="0"
     fit-margin-bottom="0"
     inkscape:zoom="5.2444444"
     inkscape:cx="31.108652"
     inkscape:cy="46.362886"
     inkscape:window-x="0"
     inkscape:window-y="0"
     inkscape:window-maximized="1"
     inkscape:current-layer="svg2" /><metadata
     id="metadata8"><rdf:RDF><cc:Work
         rdf:about=""><dc:format>image/svg+xml</dc:format><dc:type
           rdf:resource="http://purl.org/dc/dcmitype/StillImage" /><dc:title></dc:title></cc:Work></rdf:RDF></metadata><defs
     id="defs6"><linearGradient
       inkscape:collect="always"
       id="linearGradient860"><stop
         style="stop-color:#e5e5e5;stop-opacity:1;"
         offset="0"
         id="stop856" /><stop
         style="stop-color:#f3f3f3;stop-opacity:1"
         offset="1"
         id="stop858" /></linearGradient><clipPath
       id="clipPath20"
       clipPathUnits="userSpaceOnUse"><path
         id="path22"
         d="M 0,36 H 36 V 0 H 0 Z"
         inkscape:connector-curvature="0" /></clipPath><linearGradient
       inkscape:collect="always"
       xlink:href="#linearGradient860"
       id="linearGradient862"
       x1="-29.773907"
       y1="23.548727"
       x2="60.854412"
       y2="23.548727"
       gradientUnits="userSpaceOnUse" /><linearGradient
       inkscape:collect="always"
       xlink:href="#linearGradient860"
       id="linearGradient870"
       x1="47.473518"
       y1="23.441984"
       x2="-15.988809"
       y2="23.167372"
       gradientUnits="userSpaceOnUse" /></defs><g
     id="g874"
     transform="translate(29.773907,21.765432)"><circle
       r="44.904659"
       cy="23.548727"
       cx="15.540253"
       id="path839"
       style="opacity:1;fill:url(#linearGradient862);fill-opacity:1;stroke:#000000;stroke-width:0.81900001;stroke-linecap:square;stroke-miterlimit:4;stroke-dasharray:none;stroke-opacity:1" /><circle
       r="31.866776"
       cy="23.548727"
       cx="15.540253"
       id="path839-3"
       style="opacity:1;fill:url(#linearGradient870);fill-opacity:1;stroke:#000000;stroke-width:0.58120674;stroke-linecap:square;stroke-miterlimit:4;stroke-dasharray:none;stroke-opacity:1" /></g><g
     transform="matrix(1.25,0,0,-1.25,22.718822,64.667974)"
     id="g10"><g
       transform="translate(11.7915,29.9375)"
       id="g12"><path
         id="path14"
         style="fill:#ffac33;fill-opacity:1;fill-rule:nonzero;stroke:none"
         d="M 0,0 -0.01,-3.323 5.337,-1.937 2.401,0.062 Z"
         inkscape:connector-curvature="0" /></g><g
       id="g16"><g
         clip-path="url(#clipPath20)"
         id="g18"><g
           transform="translate(33.25,12.5176)"
           id="g24"><path
             id="path26"
             style="fill:#ffac33;fill-opacity:1;fill-rule:nonzero;stroke:none"
             d="m 0,0 c 0,1.138 0.761,2.071 1.75,2.238 v 11.659 c -4,0.962 -34,-7.191 -34,-7.191 V 3.17 c 1.564,-0.294 2.75,-1.662 2.75,-3.313 0,-1.65 -1.186,-3.018 -2.75,-3.312 v -7.716 l 34,6.483 v 2.451 C 0.761,-2.07 0,-1.137 0,0"
             inkscape:connector-curvature="0" /></g><g
           transform="translate(15.5854,33.7578)"
           id="g28"><path
             id="path30"
             style="fill:#ffd983;fill-opacity:1;fill-rule:nonzero;stroke:none"
             d="m 0,0 -3.843,-3.843 c 0.736,-0.172 1.258,-0.591 1.258,-1.081 0,-0.645 -0.896,-1.167 -2,-1.167 -0.474,0 -0.903,0.1 -1.246,0.26 l -8.754,-8.754 C -1.418,-11.675 7.457,-9.3 19.514,-7.36 14.653,-0.877 3.241,0 0,0"
             inkscape:connector-curvature="0" /></g><g
           transform="translate(20,30.8335)"
           id="g32"><path
             id="path34"
             style="fill:#ffac33;fill-opacity:1;fill-rule:nonzero;stroke:none"
             d="m 0,0 c 0,-0.645 -0.895,-1.167 -2,-1.167 -1.104,0 -2,0.522 -2,1.167 0,0.644 0.896,1.167 2,1.167 1.105,0 2,-0.523 2,-1.167"
             inkscape:connector-curvature="0" /></g><g
           transform="translate(15.0718,24.438)"
           id="g36"><path
             id="path38"
             style="fill:#ffac33;fill-opacity:1;fill-rule:nonzero;stroke:none"
             d="m 0,0 c 0,-0.979 -1.359,-1.771 -3.036,-1.771 -1.676,0 -3.036,0.792 -3.036,1.771 0,0.977 1.36,1.77 3.036,1.77 C -1.359,1.77 0,0.977 0,0"
             inkscape:connector-curvature="0" /></g><g
           transform="translate(29,27.6479)"
           id="g40"><path
             id="path42"
             style="fill:#ffac33;fill-opacity:1;fill-rule:nonzero;stroke:none"
             d="m 0,0 c 0,-1.094 -1.52,-1.981 -3.396,-1.981 -1.875,0 -3.396,0.887 -3.396,1.981 0,1.094 1.521,1.981 3.396,1.981 C -1.52,1.981 0,1.094 0,0"
             inkscape:connector-curvature="0" /></g><g
           transform="translate(33.625,20.3804)"
           id="g44"><path
             id="path46"
             style="fill:#f4900c;fill-opacity:1;fill-rule:nonzero;stroke:none"
             d="m 0,0 c 0,-1.332 -0.979,-2.411 -2.188,-2.411 -1.207,0 -2.187,1.079 -2.187,2.411 0,1.331 0.98,2.411 2.187,2.411 C -0.979,2.411 0,1.331 0,0"
             inkscape:connector-curvature="0" /></g><g
           transform="translate(11.375,15.5176)"
           id="g48"><path
             id="path50"
             style="fill:#f4900c;fill-opacity:1;fill-rule:nonzero;stroke:none"
             d="m 0,0 c 0,-1.255 -0.923,-2.272 -2.063,-2.272 -1.139,0 -2.062,1.017 -2.062,2.272 0,1.256 0.923,2.273 2.062,2.273 C -0.923,2.273 0,1.256 0,0"
             inkscape:connector-curvature="0" /></g><g
           transform="translate(28.5313,10.5381)"
           id="g52"><path
             id="path54"
             style="fill:#f4900c;fill-opacity:1;fill-rule:nonzero;stroke:none"
             d="M 0,0 C -0.503,-0.602 -1.355,-0.72 -1.903,-0.262 -2.45,0.195 -2.485,1.056 -1.98,1.657 -1.476,2.262 -0.624,2.379 -0.077,1.922 0.471,1.464 0.505,0.604 0,0"
             inkscape:connector-curvature="0" /></g><g
           transform="translate(18.8472,17.916)"
           id="g56"><path
             id="path58"
             style="fill:#f4900c;fill-opacity:1;fill-rule:nonzero;stroke:none"
             d="M 0,0 C -0.677,-0.811 -1.825,-0.97 -2.563,-0.352 -3.298,0.263 -3.346,1.42 -2.666,2.23 -1.986,3.044 -0.84,3.202 -0.104,2.586 0.633,1.97 0.68,0.814 0,0"
             inkscape:connector-curvature="0" /></g><g
           transform="translate(19.7197,7.9014)"
           id="g60"><path
             id="path62"
             style="fill:#f4900c;fill-opacity:1;fill-rule:nonzero;stroke:none"
             d="m 0,0 c -1.2,-1.604 -3.354,-2.02 -4.808,-0.933 -1.455,1.088 -1.663,3.273 -0.463,4.875 1.2,1.606 3.354,2.023 4.808,0.935 C 0.992,3.789 1.2,1.605 0,0"
             inkscape:connector-curvature="0" /></g></g></g></g></svg>