<svg xmlns="http://www.w3.org/2000/svg" xmlns:xlink="http://www.w3.org/1999/xlink" width="640" height="480"><defs><linearGradient id="a" x2="1" y2="1"><stop offset="0" stop-color="#ab00bf"/><stop offset="1" stop-color="#e400ff"/></linearGradient><linearGradient xlink:href="#a" id="b" x1="186.625" y1="369.307" x2="212.773" y2="395.455" gradientTransform="scale(1.01262 .98753)" gradientUnits="userSpaceOnUse"/><linearGradient xlink:href="#a" id="c" x1="160.558" y1="273.049" x2="252.182" y2="364.673" gradientTransform="scale(1.01014 .98996)" gradientUnits="userSpaceOnUse"/><linearGradient xlink:href="#a" id="d" x1="194.846" y1="99.967" x2="486.939" y2="392.06" gradientTransform="scale(1.03331 .96776)" gradientUnits="userSpaceOnUse"/></defs><path d="M208.004 366.469l-3.69 3.387c-1.043 1.233-1.569 1.113-3.019.742a9.385 9.385 0 0 0-8.009 2.335c-3.83 3.514-4.111 9.469-.596 13.299 3.513 3.829 9.495 4.086 13.324.572a9.366 9.366 0 0 0 3.029-7.247c-.253-1.577-.492-2.17.664-3.231l3.986-3.658z" fill="url(#b)" stroke="#4e007f" stroke-width="2.5"/><path d="M221.116 272.074l-14.052 12.894 13.653 14.879-9.093 8.343-13.653-14.878-3.435 3.152-4.004 3.674-3.435 3.153 13.653 14.878-9.093 8.344-13.653-14.879-14.052 12.895 17.445 19.011 6.477-2.897 4.551 4.959-3.443 6.204 6.827 7.44 18.185-16.687 8.344 9.092 20.793-19.081-8.343-9.092 18.185-16.687-6.827-7.44-6.476 2.898-4.551-4.959 3.442-6.205z" fill="url(#c)" fill-rule="evenodd" stroke="#4e007f" stroke-width="2.5"/><path d="M454.421 146.085c-3.813-4.156-9.705-5.488-12.802-2.647-2 1.836-2.455 4.872-1.505 7.901l-2.764 2.536-3.84-4.185c-9.197 6.087-21.732 4.785-29.422-3.596-8.524-9.289-7.901-23.773 1.387-32.296 9.289-8.524 23.747-7.878 32.27 1.411 4.093 4.459 6.021 10.106 5.951 15.714l12.742-.321c-.744-5.526 1.134-11.318 5.549-15.369a17.518 17.518 0 0 1 9.297-4.439 17.762 17.762 0 0 1 2.713-.206c.135 0 .261.013.396.017.125.003.248-.015.373-.009.524.026 1.061.095 1.581.167.559.078 1.122.189 1.673.32.099.023.197.037.295.062a17.674 17.674 0 0 1 4.461 1.854c.417.243.833.494 1.233.773.156.109.303.228.456.342.395.296.777.61 1.151.943.436.388.859.782 1.262 1.22l.024.026c.402.44.759.895 1.108 1.363.299.401.58.808.84 1.227.038.06.08.118.117.178.012.02.035.032.047.052.064.106.098.223.16.329.229.401.447.806.642 1.219a17.516 17.516 0 0 1 1.152 3.226c.025.1.063.201.086.301a17.492 17.492 0 0 1 .459 4.337c-.003.132-.012.264-.017.396a18.03 18.03 0 0 1-.148 1.706c-.002.017.001.033-.002.05-.077.543-.19 1.089-.318 1.624a17.528 17.528 0 0 1-5.22 8.882c-4.415 4.051-10.347 5.425-15.788 4.21l-1.413 12.668c5.594.411 11.054 2.816 15.146 7.275 8.524 9.289 7.927 23.75-1.361 32.273-9.289 8.523-23.773 7.901-32.297-1.387-7.69-8.382-7.912-20.981-1.059-29.623l-3.84-4.184 2.764-2.537c2.936 1.207 5.999 1.014 8-.822 3.096-2.841 2.274-8.826-1.539-12.981zm40.106-36.873a28.677 28.677 0 0 0-1.595-1.583 28.792 28.792 0 0 0-1.482-1.304c-.065-.052-.126-.105-.192-.157-.075-.06-.165-.101-.241-.159a28.225 28.225 0 0 0-1.564-1.135 28.18 28.18 0 0 0-1.741-1.067c-.248-.14-.5-.272-.752-.404-.079-.042-.164-.069-.243-.11-.379-.195-.756-.394-1.142-.57-.244-.112-.483-.225-.73-.329a28.133 28.133 0 0 0-.829-.334c-.098-.037-.195-.075-.293-.111-.228-.085-.456-.15-.685-.228-.444-.153-.871-.325-1.321-.454-.424-.122-.849-.201-1.277-.303-.398-.095-.803-.198-1.204-.275a27.498 27.498 0 0 0-2.516-.356c-.091-.009-.18-.029-.271-.037a28.6 28.6 0 0 0-1.014-.068c-.49-.027-.972-.037-1.463-.038-.066 0-.131-.009-.198-.009-.448.003-.893.018-1.342.042-.406.021-.813.033-1.218.072-.49.047-.986.137-1.473.209-.442.066-.886.129-1.325.216-.886.176-1.763.394-2.633.656a27.936 27.936 0 0 0-2.571.932c-.083.034-.169.054-.252.089a27.92 27.92 0 0 0-13.579 12.269 32.468 32.468 0 0 0-4.403-6.094c-12.187-13.281-32.859-14.194-46.14-2.007-13.28 12.187-14.17 32.885-1.983 46.166 7.437 8.104 18.044 11.584 28.192 10.292-4.664 4.15-11.555 4.868-17.708 6.733l-1.459 10.855-.927.804c-.319-.725-.737-1.426-1.302-2.041a7.389 7.389 0 0 0-10.452-.449c-3.015 2.766-3.241 7.46-.475 10.475a7.441 7.441 0 0 0 1.728 1.365L203.105 365.589l11.069 12.063 190.589-175.651c.31.648.701 1.282 1.211 1.839 2.767 3.014 7.463 3.191 10.478.425a7.39 7.39 0 0 0 .449-10.452 7.404 7.404 0 0 0-1.922-1.472l.881-.855 10.94-.523c2.385-5.97 3.692-12.774 8.226-17.065-2.157 10 .4 20.866 7.837 28.971 12.187 13.281 32.885 14.17 46.166 1.983 13.281-12.187 14.144-32.861 1.957-46.142a32.515 32.515 0 0 0-5.694-4.91 27.927 27.927 0 0 0 13.389-12.476c.041-.079.068-.164.109-.243.071-.137.124-.276.192-.414.133-.268.282-.53.406-.801.048-.104.092-.213.138-.317.051-.115.115-.225.164-.34.194-.457.362-.927.531-1.392.054-.148.116-.29.168-.439.005-.016-.004-.035.002-.05.047-.137.097-.277.142-.415a29.6 29.6 0 0 0 .434-1.446l.03-.122c.054-.205.101-.409.15-.614.115-.479.247-.966.336-1.45.108-.59.18-1.205.251-1.8.012-.108.027-.214.038-.321a26.56 26.56 0 0 0 .126-1.781c.02-.449.01-.891.008-1.34a28.63 28.63 0 0 0-.041-1.342c-.017-.315-.032-.63-.059-.945-.016-.191-.029-.383-.05-.573-.037-.346-.08-.678-.13-1.023-.009-.067-.03-.133-.041-.2a27.485 27.485 0 0 0-1.049-4.462c-.096-.296-.178-.587-.284-.88-.172-.474-.363-.923-.561-1.389-.117-.276-.26-.563-.386-.836a27.292 27.292 0 0 0-2.119-3.812 27.119 27.119 0 0 0-1.149-1.563 27.665 27.665 0 0 0-1.439-1.725l-.048-.051a.285.285 0 0 0-.023-.026z" fill="url(#d)" fill-rule="evenodd" stroke="#4e007f" stroke-width="2.5"/></svg>